<svg width="362" height="40" viewBox="0 0 362 40" fill="none" xmlns="http://www.w3.org/2000/svg">
<rect x="0.0712891" y="0.624207" width="361.271" height="38.5475" fill="#88AB8E"/>
<path d="M76.046 16.3511C75.9797 15.7308 75.7004 15.2479 75.208 14.9022C74.7203 14.5566 74.0858 14.3837 73.3046 14.3837C72.7553 14.3837 72.2842 14.4666 71.8912 14.6323C71.4982 14.798 71.1975 15.0229 70.9892 15.307C70.7809 15.5911 70.6743 15.9155 70.6696 16.2801C70.6696 16.5831 70.7383 16.8459 70.8756 17.0684C71.0176 17.2909 71.2094 17.4803 71.4509 17.6366C71.6923 17.7881 71.9599 17.9159 72.2534 18.0201C72.547 18.1243 72.8429 18.2119 73.1412 18.2829L74.5048 18.6238C75.0541 18.7516 75.582 18.9245 76.0886 19.1423C76.6 19.3601 77.0569 19.6347 77.4594 19.9661C77.8666 20.2976 78.1886 20.6977 78.4253 21.1664C78.662 21.6352 78.7804 22.1844 78.7804 22.8141C78.7804 23.6664 78.5626 24.4169 78.127 25.0656C77.6914 25.7095 77.0617 26.2138 76.2378 26.5783C75.4187 26.9382 74.4267 27.1181 73.2619 27.1181C72.1303 27.1181 71.1478 26.9429 70.3145 26.5926C69.4859 26.2422 68.8372 25.7308 68.3685 25.0585C67.9045 24.3861 67.6535 23.567 67.6156 22.6011H70.208C70.2458 23.1077 70.4021 23.5291 70.6767 23.8653C70.9513 24.2015 71.3088 24.4524 71.7492 24.6181C72.1942 24.7838 72.6914 24.8667 73.2406 24.8667C73.8136 24.8667 74.3154 24.7815 74.7463 24.611C75.1819 24.4358 75.5228 24.1944 75.769 23.8866C76.0153 23.5741 76.1407 23.2095 76.1455 22.7928C76.1407 22.414 76.0295 22.1015 75.8117 21.8553C75.5939 21.6044 75.2885 21.3961 74.8955 21.2303C74.5072 21.0599 74.0527 20.9084 73.5318 20.7758L71.877 20.3497C70.6791 20.0419 69.7321 19.5755 69.0361 18.9505C68.3448 18.3208 67.9992 17.4851 67.9992 16.4434C67.9992 15.5864 68.2312 14.8359 68.6952 14.192C69.1639 13.548 69.8008 13.0485 70.6057 12.6934C71.4106 12.3336 72.3221 12.1536 73.3401 12.1536C74.3723 12.1536 75.2766 12.3336 76.0531 12.6934C76.8344 13.0485 77.4475 13.5433 77.8926 14.1778C78.3377 14.8075 78.5673 15.5319 78.5815 16.3511H76.046ZM85.8454 27.111C84.7516 27.111 83.807 26.8837 83.0116 26.4292C82.2209 25.9699 81.6124 25.3212 81.1863 24.4832C80.7602 23.6404 80.5471 22.6484 80.5471 21.5073C80.5471 20.3852 80.7602 19.4003 81.1863 18.5528C81.6172 17.7005 82.2185 17.0376 82.9903 16.5641C83.7621 16.0859 84.6688 15.8468 85.7104 15.8468C86.3828 15.8468 87.0173 15.9557 87.6139 16.1735C88.2152 16.3866 88.7455 16.718 89.2048 17.1678C89.6688 17.6176 90.0334 18.1906 90.2985 18.8866C90.5637 19.5779 90.6962 20.4017 90.6962 21.3582V22.1465H81.7545V20.4136H88.2318C88.227 19.9211 88.1205 19.4832 87.9122 19.0997C87.7038 18.7114 87.4126 18.406 87.0386 18.1835C86.6693 17.9609 86.2384 17.8497 85.746 17.8497C85.2204 17.8497 84.7587 17.9775 84.361 18.2332C83.9633 18.4841 83.6532 18.8156 83.4306 19.2275C83.2128 19.6347 83.1015 20.0821 83.0968 20.5698V22.0826C83.0968 22.7171 83.2128 23.2616 83.4448 23.7161C83.6768 24.1659 84.0012 24.5116 84.4178 24.7531C84.8345 24.9898 85.3222 25.1082 85.8809 25.1082C86.255 25.1082 86.5935 25.0561 86.8965 24.9519C87.1996 24.843 87.4623 24.6844 87.6849 24.4761C87.9074 24.2677 88.0755 24.0097 88.1891 23.7019L90.5897 23.9718C90.4382 24.6063 90.1494 25.1603 89.7232 25.6337C89.3018 26.1025 88.7621 26.4671 88.1039 26.7275C87.4458 26.9832 86.6929 27.111 85.8454 27.111ZM92.8713 26.8979V15.9889H95.3287V17.8426H95.4565C95.6838 17.2176 96.0602 16.7299 96.5858 16.3795C97.1114 16.0244 97.7387 15.8468 98.4679 15.8468C99.2065 15.8468 99.8292 16.0267 100.336 16.3866C100.847 16.7417 101.207 17.227 101.415 17.8426H101.529C101.77 17.2365 102.178 16.7535 102.751 16.3937C103.328 16.0291 104.012 15.8468 104.803 15.8468C105.807 15.8468 106.626 16.164 107.261 16.7985C107.895 17.433 108.212 18.3586 108.212 19.5755V26.8979H105.634V19.9732C105.634 19.2961 105.454 18.8014 105.094 18.4889C104.734 18.1716 104.294 18.013 103.773 18.013C103.153 18.013 102.668 18.2071 102.317 18.5954C101.972 18.9789 101.799 19.4784 101.799 20.094V26.8979H99.2776V19.8667C99.2776 19.3033 99.1071 18.8534 98.7662 18.5173C98.43 18.1811 97.9897 18.013 97.4452 18.013C97.0759 18.013 96.7397 18.1077 96.4367 18.2971C96.1336 18.4818 95.8921 18.7445 95.7122 19.0854C95.5323 19.4216 95.4423 19.8146 95.4423 20.2644V26.8979H92.8713ZM113.96 27.1181C113.268 27.1181 112.646 26.995 112.092 26.7488C111.543 26.4979 111.107 26.1285 110.785 25.6408C110.468 25.1532 110.309 24.5518 110.309 23.8369C110.309 23.2213 110.423 22.7123 110.65 22.3099C110.877 21.9074 111.187 21.5854 111.58 21.344C111.973 21.1025 112.416 20.9202 112.909 20.7971C113.406 20.6693 113.919 20.5769 114.45 20.5201C115.089 20.4538 115.607 20.3946 116.005 20.3426C116.403 20.2857 116.692 20.2005 116.872 20.0869C117.056 19.9685 117.149 19.7862 117.149 19.54V19.4974C117.149 18.9623 116.99 18.548 116.673 18.2545C116.356 17.9609 115.899 17.8141 115.302 17.8141C114.672 17.8141 114.173 17.9515 113.803 18.2261C113.439 18.5007 113.193 18.825 113.065 19.1991L110.664 18.8582C110.854 18.1953 111.166 17.6413 111.602 17.1962C112.037 16.7464 112.57 16.4103 113.2 16.1877C113.83 15.9604 114.526 15.8468 115.288 15.8468C115.813 15.8468 116.337 15.9084 116.857 16.0315C117.378 16.1546 117.854 16.3582 118.285 16.6423C118.716 16.9216 119.062 17.3028 119.322 17.7857C119.587 18.2687 119.72 18.8724 119.72 19.5968V26.8979H117.248V25.3994H117.163C117.007 25.7024 116.786 25.9865 116.502 26.2516C116.223 26.5121 115.87 26.7228 115.444 26.8837C115.023 27.04 114.528 27.1181 113.96 27.1181ZM114.627 25.2289C115.143 25.2289 115.591 25.1271 115.97 24.9235C116.348 24.7152 116.64 24.4406 116.843 24.0997C117.052 23.7587 117.156 23.3871 117.156 22.9846V21.6991C117.075 21.7654 116.938 21.8269 116.744 21.8837C116.554 21.9406 116.341 21.9903 116.105 22.0329C115.868 22.0755 115.634 22.1134 115.402 22.1465C115.169 22.1797 114.968 22.2081 114.798 22.2318C114.414 22.2838 114.071 22.3691 113.768 22.4874C113.465 22.6058 113.226 22.7715 113.051 22.9846C112.875 23.1929 112.788 23.4628 112.788 23.7943C112.788 24.2677 112.961 24.6252 113.306 24.8667C113.652 25.1082 114.092 25.2289 114.627 25.2289ZM124.876 20.5059V26.8979H122.305V15.9889H124.762V17.8426H124.89C125.141 17.2318 125.541 16.7464 126.09 16.3866C126.644 16.0267 127.329 15.8468 128.143 15.8468C128.896 15.8468 129.552 16.0078 130.11 16.3298C130.674 16.6517 131.109 17.1181 131.417 17.7289C131.73 18.3397 131.884 19.0807 131.879 19.9519V26.8979H129.308V20.3497C129.308 19.6205 129.118 19.0499 128.74 18.638C128.366 18.2261 127.847 18.0201 127.184 18.0201C126.734 18.0201 126.334 18.1195 125.984 18.3184C125.638 18.5125 125.366 18.7943 125.167 19.1636C124.973 19.5329 124.876 19.9803 124.876 20.5059ZM137.632 27.1181C136.94 27.1181 136.318 26.995 135.764 26.7488C135.214 26.4979 134.779 26.1285 134.457 25.6408C134.14 25.1532 133.981 24.5518 133.981 23.8369C133.981 23.2213 134.095 22.7123 134.322 22.3099C134.549 21.9074 134.859 21.5854 135.252 21.344C135.645 21.1025 136.088 20.9202 136.58 20.7971C137.078 20.6693 137.591 20.5769 138.122 20.5201C138.761 20.4538 139.279 20.3946 139.677 20.3426C140.075 20.2857 140.364 20.2005 140.544 20.0869C140.728 19.9685 140.821 19.7862 140.821 19.54V19.4974C140.821 18.9623 140.662 18.548 140.345 18.2545C140.027 17.9609 139.571 17.8141 138.974 17.8141C138.344 17.8141 137.845 17.9515 137.475 18.2261C137.111 18.5007 136.865 18.825 136.737 19.1991L134.336 18.8582C134.526 18.1953 134.838 17.6413 135.274 17.1962C135.709 16.7464 136.242 16.4103 136.872 16.1877C137.501 15.9604 138.197 15.8468 138.96 15.8468C139.485 15.8468 140.009 15.9084 140.529 16.0315C141.05 16.1546 141.526 16.3582 141.957 16.6423C142.388 16.9216 142.733 17.3028 142.994 17.7857C143.259 18.2687 143.392 18.8724 143.392 19.5968V26.8979H140.92V25.3994H140.835C140.678 25.7024 140.458 25.9865 140.174 26.2516C139.895 26.5121 139.542 26.7228 139.116 26.8837C138.695 27.04 138.2 27.1181 137.632 27.1181ZM138.299 25.2289C138.815 25.2289 139.263 25.1271 139.642 24.9235C140.02 24.7152 140.312 24.4406 140.515 24.0997C140.723 23.7587 140.828 23.3871 140.828 22.9846V21.6991C140.747 21.7654 140.61 21.8269 140.416 21.8837C140.226 21.9406 140.013 21.9903 139.777 22.0329C139.54 22.0755 139.305 22.1134 139.073 22.1465C138.841 22.1797 138.64 22.2081 138.47 22.2318C138.086 22.2838 137.743 22.3691 137.44 22.4874C137.137 22.6058 136.898 22.7715 136.723 22.9846C136.547 23.1929 136.46 23.4628 136.46 23.7943C136.46 24.2677 136.633 24.6252 136.978 24.8667C137.324 25.1082 137.764 25.2289 138.299 25.2289ZM154.986 27.0897C154.129 27.0897 153.362 26.8695 152.685 26.4292C152.008 25.9889 151.473 25.3497 151.08 24.5116C150.687 23.6735 150.49 22.6555 150.49 21.4576C150.49 20.2455 150.689 19.2228 151.087 18.3894C151.489 17.5514 152.031 16.9193 152.713 16.4931C153.395 16.0622 154.155 15.8468 154.993 15.8468C155.632 15.8468 156.158 15.9557 156.57 16.1735C156.982 16.3866 157.308 16.6446 157.55 16.9477C157.791 17.246 157.978 17.5277 158.111 17.7928H158.218V12.3525H160.796V26.8979H158.267V25.1792H158.111C157.978 25.4444 157.787 25.7261 157.536 26.0244C157.285 26.3179 156.953 26.5689 156.541 26.7772C156.129 26.9855 155.611 27.0897 154.986 27.0897ZM155.703 24.9803C156.248 24.9803 156.712 24.8336 157.095 24.54C157.479 24.2417 157.77 23.8274 157.969 23.2971C158.168 22.7668 158.267 22.1489 158.267 21.4434C158.267 20.7379 158.168 20.1247 157.969 19.6039C157.775 19.0831 157.486 18.6783 157.102 18.3894C156.724 18.1006 156.257 17.9562 155.703 17.9562C155.13 17.9562 154.652 18.1053 154.269 18.4036C153.885 18.7019 153.596 19.1139 153.402 19.6394C153.208 20.165 153.111 20.7663 153.111 21.4434C153.111 22.1252 153.208 22.7336 153.402 23.2687C153.601 23.799 153.892 24.218 154.276 24.5258C154.664 24.8288 155.14 24.9803 155.703 24.9803ZM168.294 27.111C167.229 27.111 166.305 26.8766 165.524 26.4079C164.743 25.9391 164.137 25.2834 163.706 24.4406C163.28 23.5978 163.067 22.6129 163.067 21.486C163.067 20.3591 163.28 19.3719 163.706 18.5244C164.137 17.6768 164.743 17.0187 165.524 16.5499C166.305 16.0812 167.229 15.8468 168.294 15.8468C169.359 15.8468 170.283 16.0812 171.064 16.5499C171.845 17.0187 172.449 17.6768 172.875 18.5244C173.306 19.3719 173.521 20.3591 173.521 21.486C173.521 22.6129 173.306 23.5978 172.875 24.4406C172.449 25.2834 171.845 25.9391 171.064 26.4079C170.283 26.8766 169.359 27.111 168.294 27.111ZM168.308 25.0514C168.886 25.0514 169.369 24.8927 169.757 24.5755C170.145 24.2535 170.434 23.8227 170.623 23.2829C170.818 22.7431 170.915 22.1418 170.915 21.4789C170.915 20.8113 170.818 20.2076 170.623 19.6678C170.434 19.1233 170.145 18.6901 169.757 18.3681C169.369 18.0461 168.886 17.8852 168.308 17.8852C167.716 17.8852 167.224 18.0461 166.831 18.3681C166.443 18.6901 166.151 19.1233 165.957 19.6678C165.768 20.2076 165.673 20.8113 165.673 21.4789C165.673 22.1418 165.768 22.7431 165.957 23.2829C166.151 23.8227 166.443 24.2535 166.831 24.5755C167.224 24.8927 167.716 25.0514 168.308 25.0514ZM185.423 27.111C184.334 27.111 183.399 26.8719 182.617 26.3937C181.841 25.9155 181.242 25.255 180.821 24.4122C180.404 23.5646 180.196 22.5892 180.196 21.486C180.196 20.3781 180.409 19.4003 180.835 18.5528C181.261 17.7005 181.862 17.0376 182.639 16.5641C183.42 16.0859 184.343 15.8468 185.409 15.8468C186.294 15.8468 187.078 16.0102 187.759 16.3369C188.446 16.6588 188.993 17.1158 189.4 17.7076C189.807 18.2947 190.039 18.9813 190.096 19.7673H187.639C187.539 19.2417 187.303 18.8037 186.928 18.4533C186.559 18.0982 186.064 17.9207 185.444 17.9207C184.919 17.9207 184.457 18.0627 184.059 18.3468C183.661 18.6262 183.351 19.0286 183.129 19.5542C182.911 20.0798 182.802 20.7095 182.802 21.4434C182.802 22.1868 182.911 22.826 183.129 23.361C183.347 23.8913 183.652 24.3009 184.045 24.5897C184.443 24.8738 184.909 25.0158 185.444 25.0158C185.823 25.0158 186.161 24.9448 186.46 24.8028C186.763 24.656 187.016 24.4453 187.22 24.1707C187.423 23.8961 187.563 23.5622 187.639 23.1693H190.096C190.035 23.941 189.807 24.6252 189.414 25.2218C189.021 25.8137 188.486 26.2777 187.809 26.6139C187.132 26.9453 186.337 27.111 185.423 27.111ZM196.966 27.111C195.9 27.111 194.977 26.8766 194.196 26.4079C193.415 25.9391 192.809 25.2834 192.378 24.4406C191.952 23.5978 191.739 22.6129 191.739 21.486C191.739 20.3591 191.952 19.3719 192.378 18.5244C192.809 17.6768 193.415 17.0187 194.196 16.5499C194.977 16.0812 195.9 15.8468 196.966 15.8468C198.031 15.8468 198.954 16.0812 199.736 16.5499C200.517 17.0187 201.121 17.6768 201.547 18.5244C201.978 19.3719 202.193 20.3591 202.193 21.486C202.193 22.6129 201.978 23.5978 201.547 24.4406C201.121 25.2834 200.517 25.9391 199.736 26.4079C198.954 26.8766 198.031 27.111 196.966 27.111ZM196.98 25.0514C197.558 25.0514 198.041 24.8927 198.429 24.5755C198.817 24.2535 199.106 23.8227 199.295 23.2829C199.489 22.7431 199.587 22.1418 199.587 21.4789C199.587 20.8113 199.489 20.2076 199.295 19.6678C199.106 19.1233 198.817 18.6901 198.429 18.3681C198.041 18.0461 197.558 17.8852 196.98 17.8852C196.388 17.8852 195.896 18.0461 195.503 18.3681C195.114 18.6901 194.823 19.1233 194.629 19.6678C194.44 20.2076 194.345 20.8113 194.345 21.4789C194.345 22.1418 194.44 22.7431 194.629 23.2829C194.823 23.8227 195.114 24.2535 195.503 24.5755C195.896 24.8927 196.388 25.0514 196.98 25.0514ZM206.946 20.5059V26.8979H204.375V15.9889H206.833V17.8426H206.96C207.211 17.2318 207.611 16.7464 208.161 16.3866C208.715 16.0267 209.399 15.8468 210.213 15.8468C210.966 15.8468 211.622 16.0078 212.181 16.3298C212.744 16.6517 213.18 17.1181 213.487 17.7289C213.8 18.3397 213.954 19.0807 213.949 19.9519V26.8979H211.378V20.3497C211.378 19.6205 211.189 19.0499 210.81 18.638C210.436 18.2261 209.917 18.0201 209.254 18.0201C208.805 18.0201 208.405 18.1195 208.054 18.3184C207.709 18.5125 207.436 18.7943 207.237 19.1636C207.043 19.5329 206.946 19.9803 206.946 20.5059ZM225.185 18.8724L222.841 19.1281C222.775 18.8913 222.659 18.6688 222.493 18.4604C222.332 18.2521 222.114 18.084 221.84 17.9562C221.565 17.8283 221.229 17.7644 220.831 17.7644C220.296 17.7644 219.846 17.8804 219.482 18.1124C219.122 18.3444 218.944 18.6451 218.949 19.0144C218.944 19.3317 219.06 19.5897 219.297 19.7886C219.539 19.9874 219.936 20.1508 220.49 20.2786L222.351 20.6764C223.383 20.8989 224.15 21.2516 224.652 21.7346C225.159 22.2176 225.415 22.8497 225.419 23.6309C225.415 24.3175 225.213 24.9235 224.816 25.4491C224.423 25.9699 223.876 26.3771 223.175 26.6707C222.474 26.9642 221.669 27.111 220.76 27.111C219.425 27.111 218.35 26.8317 217.536 26.2729C216.721 25.7095 216.236 24.9259 216.08 23.9221L218.587 23.6806C218.701 24.173 218.942 24.5447 219.311 24.7957C219.681 25.0466 220.161 25.1721 220.753 25.1721C221.364 25.1721 221.854 25.0466 222.223 24.7957C222.597 24.5447 222.784 24.2346 222.784 23.8653C222.784 23.5528 222.664 23.2947 222.422 23.0911C222.185 22.8875 221.816 22.7313 221.314 22.6224L219.453 22.2318C218.407 22.014 217.633 21.647 217.131 21.1309C216.629 20.6101 216.38 19.9519 216.385 19.1565C216.38 18.4841 216.563 17.9017 216.932 17.4093C217.306 16.9122 217.825 16.5286 218.487 16.2587C219.155 15.9841 219.924 15.8468 220.796 15.8468C222.074 15.8468 223.08 16.1191 223.814 16.6636C224.553 17.2081 225.01 17.9444 225.185 18.8724ZM234.492 22.3099V15.9889H237.063V26.8979H234.571V24.959H234.457C234.211 25.5698 233.806 26.0694 233.242 26.4576C232.684 26.8459 231.995 27.04 231.176 27.04C230.461 27.04 229.829 26.8814 229.279 26.5641C228.735 26.2422 228.309 25.7758 228.001 25.165C227.693 24.5495 227.539 23.8061 227.539 22.9349V15.9889H230.11V22.5372C230.11 23.2284 230.3 23.7777 230.678 24.1849C231.057 24.5921 231.554 24.7957 232.17 24.7957C232.549 24.7957 232.916 24.7033 233.271 24.5187C233.626 24.334 233.917 24.0594 234.144 23.6948C234.376 23.3255 234.492 22.8639 234.492 22.3099ZM239.707 26.8979V15.9889H242.165V17.8426H242.292C242.52 17.2176 242.896 16.7299 243.422 16.3795C243.947 16.0244 244.575 15.8468 245.304 15.8468C246.042 15.8468 246.665 16.0267 247.172 16.3866C247.683 16.7417 248.043 17.227 248.251 17.8426H248.365C248.606 17.2365 249.014 16.7535 249.587 16.3937C250.164 16.0291 250.848 15.8468 251.639 15.8468C252.643 15.8468 253.462 16.164 254.096 16.7985C254.731 17.433 255.048 18.3586 255.048 19.5755V26.8979H252.47V19.9732C252.47 19.2961 252.29 18.8014 251.93 18.4889C251.57 18.1716 251.13 18.013 250.609 18.013C249.989 18.013 249.504 18.2071 249.153 18.5954C248.808 18.9789 248.635 19.4784 248.635 20.094V26.8979H246.114V19.8667C246.114 19.3033 245.943 18.8534 245.602 18.5173C245.266 18.1811 244.826 18.013 244.281 18.013C243.912 18.013 243.576 18.1077 243.273 18.2971C242.97 18.4818 242.728 18.7445 242.548 19.0854C242.368 19.4216 242.278 19.8146 242.278 20.2644V26.8979H239.707ZM257.656 26.8979V15.9889H260.227V26.8979H257.656ZM258.949 14.4406C258.542 14.4406 258.192 14.3056 257.898 14.0357C257.604 13.7611 257.458 13.432 257.458 13.0485C257.458 12.6603 257.604 12.3312 257.898 12.0613C258.192 11.7867 258.542 11.6494 258.949 11.6494C259.361 11.6494 259.711 11.7867 260 12.0613C260.294 12.3312 260.441 12.6603 260.441 13.0485C260.441 13.432 260.294 13.7611 260 14.0357C259.711 14.3056 259.361 14.4406 258.949 14.4406ZM266.92 27.0897C266.063 27.0897 265.296 26.8695 264.618 26.4292C263.941 25.9889 263.406 25.3497 263.013 24.5116C262.62 23.6735 262.424 22.6555 262.424 21.4576C262.424 20.2455 262.623 19.2228 263.02 18.3894C263.423 17.5514 263.965 16.9193 264.647 16.4931C265.329 16.0622 266.089 15.8468 266.927 15.8468C267.566 15.8468 268.091 15.9557 268.503 16.1735C268.915 16.3866 269.242 16.6446 269.484 16.9477C269.725 17.246 269.912 17.5277 270.045 17.7928H270.151V12.3525H272.729V26.8979H270.201V25.1792H270.045C269.912 25.4444 269.72 25.7261 269.469 26.0244C269.218 26.3179 268.887 26.5689 268.475 26.7772C268.063 26.9855 267.545 27.0897 266.92 27.0897ZM267.637 24.9803C268.181 24.9803 268.645 24.8336 269.029 24.54C269.413 24.2417 269.704 23.8274 269.903 23.2971C270.101 22.7668 270.201 22.1489 270.201 21.4434C270.201 20.7379 270.101 20.1247 269.903 19.6039C269.708 19.0831 269.42 18.6783 269.036 18.3894C268.657 18.1006 268.191 17.9562 267.637 17.9562C267.064 17.9562 266.586 18.1053 266.202 18.4036C265.819 18.7019 265.53 19.1139 265.336 19.6394C265.142 20.165 265.045 20.7663 265.045 21.4434C265.045 22.1252 265.142 22.7336 265.336 23.2687C265.535 23.799 265.826 24.218 266.209 24.5258C266.598 24.8288 267.073 24.9803 267.637 24.9803ZM280.227 27.111C279.162 27.111 278.239 26.8766 277.458 26.4079C276.676 25.9391 276.07 25.2834 275.639 24.4406C275.213 23.5978 275 22.6129 275 21.486C275 20.3591 275.213 19.3719 275.639 18.5244C276.07 17.6768 276.676 17.0187 277.458 16.5499C278.239 16.0812 279.162 15.8468 280.227 15.8468C281.293 15.8468 282.216 16.0812 282.997 16.5499C283.779 17.0187 284.382 17.6768 284.808 18.5244C285.239 19.3719 285.455 20.3591 285.455 21.486C285.455 22.6129 285.239 23.5978 284.808 24.4406C284.382 25.2834 283.779 25.9391 282.997 26.4079C282.216 26.8766 281.293 27.111 280.227 27.111ZM280.242 25.0514C280.819 25.0514 281.302 24.8927 281.691 24.5755C282.079 24.2535 282.368 23.8227 282.557 23.2829C282.751 22.7431 282.848 22.1418 282.848 21.4789C282.848 20.8113 282.751 20.2076 282.557 19.6678C282.368 19.1233 282.079 18.6901 281.691 18.3681C281.302 18.0461 280.819 17.8852 280.242 17.8852C279.65 17.8852 279.157 18.0461 278.764 18.3681C278.376 18.6901 278.085 19.1233 277.891 19.6678C277.701 20.2076 277.607 20.8113 277.607 21.4789C277.607 22.1418 277.701 22.7431 277.891 23.2829C278.085 23.8227 278.376 24.2535 278.764 24.5755C279.157 24.8927 279.65 25.0514 280.242 25.0514ZM287.637 26.8979V15.9889H290.13V17.807H290.243C290.442 17.1773 290.783 16.692 291.266 16.3511C291.754 16.0054 292.31 15.8326 292.935 15.8326C293.077 15.8326 293.236 15.8397 293.411 15.8539C293.591 15.8634 293.74 15.88 293.859 15.9036V18.2687C293.75 18.2308 293.577 18.1977 293.34 18.1693C293.108 18.1361 292.883 18.1195 292.665 18.1195C292.197 18.1195 291.775 18.2213 291.401 18.4249C291.032 18.6238 290.741 18.9008 290.528 19.2559C290.314 19.611 290.208 20.0206 290.208 20.4846V26.8979H287.637Z" fill="#EEE7DA"/>
<path d="M318.938 14.6888C319.143 14.8651 319.182 15.059 319.057 15.2705L309.86 30.5674C309.713 30.7878 309.474 30.8979 309.145 30.8979C309.1 30.8979 309.02 30.8891 308.907 30.8715C308.714 30.8274 308.569 30.7437 308.472 30.6203C308.376 30.4969 308.35 30.3647 308.396 30.2237L311.751 19.541L304.836 20.8763C304.791 20.8851 304.723 20.8895 304.632 20.8895C304.427 20.8895 304.251 20.8411 304.104 20.7441C303.899 20.6119 303.826 20.44 303.882 20.2285L307.306 9.32103C307.351 9.19763 307.442 9.09627 307.578 9.01694C307.714 8.93761 307.873 8.89795 308.055 8.89795H313.641C313.857 8.89795 314.039 8.95304 314.186 9.06321C314.334 9.17339 314.408 9.3034 314.408 9.45324C314.408 9.52375 314.379 9.60308 314.323 9.69122L311.41 15.8126L318.155 14.5169C318.246 14.4993 318.314 14.4905 318.359 14.4905C318.575 14.4905 318.768 14.5566 318.938 14.6888Z" fill="#EEE7DA"/>
<path d="M57.359 14.6888C57.5634 14.8651 57.6032 15.059 57.4783 15.2705L48.2812 30.5674C48.1336 30.7878 47.8952 30.8979 47.5659 30.8979C47.5205 30.8979 47.441 30.8891 47.3275 30.8715C47.1345 30.8274 46.9897 30.7437 46.8932 30.6203C46.7967 30.4969 46.7711 30.3647 46.8165 30.2237L50.1717 19.541L43.2569 20.8763C43.2115 20.8851 43.1434 20.8895 43.0526 20.8895C42.8482 20.8895 42.6722 20.8411 42.5246 20.7441C42.3202 20.6119 42.2464 20.44 42.3032 20.2285L45.7265 9.32103C45.7719 9.19763 45.8628 9.09627 45.999 9.01694C46.1353 8.93761 46.2942 8.89795 46.4759 8.89795H52.0622C52.278 8.89795 52.4596 8.95304 52.6072 9.06321C52.7548 9.17339 52.8287 9.3034 52.8287 9.45324C52.8287 9.52375 52.8003 9.60308 52.7435 9.69122L49.8311 15.8126L56.5756 14.5169C56.6664 14.4993 56.7345 14.4905 56.78 14.4905C56.9957 14.4905 57.1887 14.5566 57.359 14.6888Z" fill="#EEE7DA"/>
</svg>
