<svg width="24" height="24" viewBox="0 0 24 24" fill="none" xmlns="http://www.w3.org/2000/svg">
<path d="M13.716 17.261L20.589 23.843L24 20.282L17.176 13.746C17.9276 12.3906 18.321 10.8659 18.319 9.316C18.319 4.261 14.214 0.157 9.159 0.157C4.104 0.157 0 4.261 0 9.316C0 14.371 4.104 18.475 9.159 18.475C10.7582 18.4773 12.3299 18.0586 13.716 17.261ZM9.159 2.773C10.8941 2.77379 12.5578 3.4634 13.7847 4.69028C15.0116 5.91716 15.7012 7.58093 15.702 9.316C15.7012 11.051 15.0116 12.7146 13.7847 13.9414C12.5578 15.1681 10.894 15.8575 9.159 15.858C7.4242 15.8572 5.76068 15.1677 4.53399 13.941C3.30729 12.7143 2.6178 11.0508 2.617 9.316C2.61753 7.58102 3.30691 5.91725 4.53363 4.69034C5.76035 3.46343 7.42402 2.7738 9.159 2.773ZM7.26 5.713C8.02758 5.31752 8.90115 5.17674 9.7541 5.31105C10.6071 5.44535 11.3951 5.84778 12.004 6.46C12.611 7.07387 13.0067 7.86507 13.1338 8.71893C13.2609 9.57279 13.1128 10.4449 12.711 11.209L13.868 11.82C14.3995 10.8093 14.5954 9.65565 14.4273 8.52617C14.2592 7.39668 13.7358 6.35007 12.933 5.538C12.1275 4.72861 11.0853 4.19667 9.95729 4.01921C8.82929 3.84176 7.67407 4.02802 6.659 4.551L7.26 5.713Z" fill="#AFC8AD"/>
</svg>
