<svg width="32" height="32" viewBox="0 0 32 32" fill="none" xmlns="http://www.w3.org/2000/svg">
<path d="M31.4529 25.8601L28.1331 4.94703C27.8376 3.08908 26.258 1.74042 24.3771 1.74042H7.62288C5.74198 1.74042 4.16236 3.08908 3.86694 4.94703L0.547047 25.8605C0.372727 26.9611 0.687677 28.0788 1.41133 28.926C2.13498 29.7737 3.1892 30.2595 4.30348 30.2595H27.6965C28.8108 30.2595 29.865 29.7737 30.5887 28.926C31.3123 28.0788 31.6273 26.9611 31.4529 25.8601ZM28.3074 26.9777C28.2175 27.0832 28.0188 27.2595 27.6965 27.2595H4.30347C3.9812 27.2595 3.78246 27.0832 3.69262 26.9777C3.60277 26.8728 3.4597 26.6486 3.51 26.3308L6.82989 5.41774C6.89239 5.02515 7.22589 4.74048 7.62287 4.74048H24.3771C24.7741 4.74048 25.1076 5.02515 25.1701 5.41774L28.49 26.3303C28.5403 26.6486 28.3972 26.8728 28.3074 26.9777Z" fill="#AFC8AD"/>
<path d="M21.2747 6.41876C20.446 6.41876 19.7746 7.09016 19.7746 7.91879V12.0829C19.7746 14.164 18.0812 15.8569 16.0001 15.8569C13.919 15.8569 12.2256 14.164 12.2256 12.0829V7.91879C12.2256 7.09016 11.5542 6.41876 10.7256 6.41876C9.89699 6.41876 9.22559 7.09016 9.22559 7.91879V12.0829C9.22559 15.8184 12.2647 18.857 16.0001 18.857C19.7356 18.857 22.7747 15.8184 22.7747 12.0829V7.91879C22.7747 7.09016 22.1033 6.41876 21.2747 6.41876Z" fill="#AFC8AD"/>
</svg>
