<svg width="24" height="24" viewBox="0 0 24 24" fill="none" xmlns="http://www.w3.org/2000/svg">
<path d="M20.1598 4.99998C19.0998 3.93719 17.6946 3.28852 16.1981 3.17115C14.7017 3.05378 13.2126 3.47545 11.9998 4.35998C10.7274 3.41362 9.14378 2.98449 7.56771 3.15902C5.99164 3.33355 4.54023 4.09876 3.50576 5.30057C2.47129 6.50237 1.93061 8.0515 1.99259 9.636C2.05457 11.2205 2.71461 12.7227 3.83979 13.84L10.0498 20.06C10.5698 20.5718 11.2702 20.8586 11.9998 20.8586C12.7294 20.8586 13.4298 20.5718 13.9498 20.06L20.1598 13.84C21.3274 12.6652 21.9827 11.0763 21.9827 9.41998C21.9827 7.76371 21.3274 6.17472 20.1598 4.99998ZM18.7498 12.46L12.5398 18.67C12.4691 18.7413 12.385 18.798 12.2923 18.8366C12.1996 18.8753 12.1002 18.8952 11.9998 18.8952C11.8994 18.8952 11.7999 18.8753 11.7072 18.8366C11.6146 18.798 11.5305 18.7413 11.4598 18.67L5.24979 12.43C4.46555 11.6283 4.0264 10.5514 4.0264 9.42998C4.0264 8.30852 4.46555 7.23164 5.24979 6.42998C6.04894 5.64097 7.12676 5.19855 8.24979 5.19855C9.37281 5.19855 10.4506 5.64097 11.2498 6.42998C11.3428 6.52371 11.4534 6.59811 11.5752 6.64887C11.6971 6.69964 11.8278 6.72578 11.9598 6.72578C12.0918 6.72578 12.2225 6.69964 12.3444 6.64887C12.4662 6.59811 12.5768 6.52371 12.6698 6.42998C13.4689 5.64097 14.5468 5.19855 15.6698 5.19855C16.7928 5.19855 17.8706 5.64097 18.6698 6.42998C19.4648 7.22113 19.9184 8.29217 19.9333 9.41367C19.9483 10.5352 19.5234 11.6179 18.7498 12.43V12.46Z" fill="#AFC8AD"/>
</svg>
