<svg width="203" height="40" viewBox="0 0 203 40" fill="none" xmlns="http://www.w3.org/2000/svg">
<path d="M48.5465 20.2845C49.3865 20.2845 50.0465 20.0378 50.5265 19.5445C51.0065 19.0512 51.2465 18.3712 51.2465 17.5045C51.2465 16.3578 50.9532 15.4178 50.3665 14.6845C49.7932 13.9512 48.9532 13.5845 47.8465 13.5845C47.0465 13.5845 46.3132 13.8245 45.6465 14.3045V26.2245L48.8865 27.0245L48.3865 28.0245H40.8065V27.2045L42.6865 25.7245V13.9645L40.5665 13.2845L41.0665 12.2845H43.7865C45.0532 12.2845 46.2865 12.2445 47.4865 12.1645C48.3932 12.1112 49.0532 12.0845 49.4665 12.0845C50.4399 12.0845 51.3065 12.2845 52.0665 12.6845C52.8265 13.0845 53.4132 13.6312 53.8265 14.3245C54.2399 15.0178 54.4465 15.7912 54.4465 16.6445C54.4465 17.5912 54.0932 18.4845 53.3865 19.3245C52.6799 20.1512 51.7865 20.8045 50.7065 21.2845C49.6265 21.7512 48.5732 21.9578 47.5465 21.9045L46.6265 21.2645L47.1265 20.2645H48.5465V20.2845ZM62.9684 27.9845C62.3551 28.1312 61.6018 28.2045 60.7084 28.2045C59.7884 28.2045 58.9618 27.9778 58.2284 27.5245C57.5084 27.0578 56.9418 26.4312 56.5284 25.6445C56.1151 24.8445 55.9084 23.9645 55.9084 23.0045C55.9084 21.9645 56.2284 20.9978 56.8684 20.1045C57.5218 19.1978 58.3351 18.4778 59.3084 17.9445C60.2818 17.3978 61.2218 17.1245 62.1284 17.1245C63.4484 17.1245 64.4751 17.6378 65.2084 18.6645C65.9418 19.6912 66.3018 21.0712 66.2884 22.8045H58.9484C59.0551 23.8178 59.3551 24.6378 59.8484 25.2645C60.3551 25.8912 61.0351 26.2045 61.8884 26.2045C62.7818 26.2045 64.0618 25.6112 65.7284 24.4245L66.3084 25.3445L62.9684 27.9845ZM60.9884 19.0445C59.6684 19.0445 58.9751 19.9578 58.9084 21.7845H63.2484C63.1418 21.1312 63.0218 20.6245 62.8884 20.2645C62.7684 19.8912 62.5551 19.5978 62.2484 19.3845C61.9551 19.1578 61.5351 19.0445 60.9884 19.0445ZM75.0162 19.5045C74.4296 19.5045 73.8296 19.8112 73.2162 20.4245V26.1645L76.1162 27.0045L75.6162 28.0045H68.6362V27.1845L70.4162 25.7445V20.5445L68.6362 19.4645V18.6445L72.3562 16.9445L73.0362 19.3045L75.0162 17.2845C75.2562 17.1778 75.6029 17.1245 76.0562 17.1245C76.6029 17.1245 77.0762 17.2578 77.4762 17.5245C77.8762 17.7912 78.1696 18.1645 78.3562 18.6445L76.7962 20.6045H75.8362C75.7962 20.2178 75.7096 19.9445 75.5762 19.7845C75.4562 19.6112 75.2696 19.5245 75.0162 19.5245V19.5045ZM86.8175 10.3445C87.2308 10.3445 87.6975 10.3912 88.2175 10.4845C88.7375 10.5778 89.1108 10.6778 89.3375 10.7845V14.0645H88.3775C88.0575 13.5045 87.6575 13.0645 87.1775 12.7445C86.6975 12.4112 86.2108 12.2445 85.7175 12.2445C85.1575 12.2445 84.7308 12.4912 84.4375 12.9845C84.1441 13.4778 83.9975 14.1978 83.9975 15.1445V17.9245H87.4975V18.9445H83.9975V26.1645L86.8975 27.0045L86.3975 28.0045H79.4175V27.1845L81.1975 25.7445V18.9445H78.9175V17.9245H81.1975V16.2245C81.1975 15.1845 81.4841 14.2178 82.0575 13.3245C82.6441 12.4178 83.3775 11.6978 84.2575 11.1645C85.1375 10.6178 85.9908 10.3445 86.8175 10.3445ZM100.619 28.0045H96.5186V26.0645L94.1386 28.0445C93.8586 28.1512 93.4719 28.2045 92.9786 28.2045C92.0319 28.2045 91.2786 27.9312 90.7186 27.3845C90.1586 26.8245 89.8786 26.0712 89.8786 25.1245V20.5445L88.0986 19.5045V18.6845L91.7186 16.9845H92.6786V23.9245C92.6786 24.6312 92.7852 25.1245 92.9986 25.4045C93.2119 25.6712 93.5852 25.8045 94.1186 25.8045C94.4919 25.8045 94.8652 25.7378 95.2386 25.6045C95.6119 25.4712 96.0386 25.2178 96.5186 24.8445V20.5445L94.7386 19.5045V18.6845L98.3586 16.9845H99.3186V26.3445L101.119 27.0045L100.619 28.0045ZM121.639 28.0045H117.539V21.3045C117.539 20.6378 117.433 20.1778 117.219 19.9245C117.019 19.6578 116.659 19.5245 116.139 19.5245C115.779 19.5245 115.413 19.5912 115.039 19.7245C114.679 19.8578 114.266 20.1112 113.799 20.4845V26.3645L115.539 27.0045L115.039 28.0045H110.999V21.3045C110.999 20.6378 110.893 20.1778 110.679 19.9245C110.479 19.6578 110.119 19.5245 109.599 19.5245C109.226 19.5245 108.853 19.5912 108.479 19.7245C108.119 19.8578 107.706 20.1112 107.239 20.4845V26.3645L108.999 27.0045L108.499 28.0045H102.659V27.1845L104.439 25.7445V20.5445L102.659 19.4645V18.6445L106.379 16.9445L107.079 19.4045L109.639 17.2845C109.893 17.1778 110.259 17.1245 110.739 17.1245C111.526 17.1245 112.179 17.3245 112.699 17.7245C113.219 18.1112 113.559 18.6512 113.719 19.3445L116.199 17.2845C116.453 17.1778 116.819 17.1245 117.299 17.1245C118.233 17.1245 118.973 17.4045 119.519 17.9645C120.079 18.5112 120.359 19.2578 120.359 20.2045V26.3445L122.139 27.0045L121.639 28.0045ZM134.438 28.0045H130.338V26.2645L128.078 28.0445C127.811 28.1512 127.478 28.2045 127.078 28.2045C125.878 28.2045 125.005 27.9112 124.458 27.3245C123.925 26.7245 123.658 26.0045 123.658 25.1645C123.658 24.6712 123.825 24.1912 124.158 23.7245C124.505 23.2445 124.991 22.7912 125.618 22.3645H130.338V21.4445C130.338 19.9245 129.525 19.1645 127.898 19.1645C127.045 19.1645 125.951 19.6112 124.618 20.5045L124.018 19.6045L126.858 17.3445C127.418 17.1978 128.118 17.1245 128.958 17.1245C130.278 17.1245 131.305 17.4378 132.038 18.0645C132.771 18.6912 133.138 19.6045 133.138 20.8045V26.3045L134.938 27.0045L134.438 28.0045ZM127.858 26.1045C128.605 26.1045 129.431 25.7645 130.338 25.0845V23.3845H126.918C126.651 23.7045 126.518 24.0912 126.518 24.5445C126.518 24.9845 126.638 25.3578 126.878 25.6645C127.131 25.9578 127.458 26.1045 127.858 26.1045ZM142.712 19.5045C142.125 19.5045 141.525 19.8112 140.912 20.4245V26.1645L143.812 27.0045L143.312 28.0045H136.332V27.1845L138.112 25.7445V20.5445L136.332 19.4645V18.6445L140.052 16.9445L140.732 19.3045L142.712 17.2845C142.952 17.1778 143.298 17.1245 143.752 17.1245C144.298 17.1245 144.772 17.2578 145.172 17.5245C145.572 17.7912 145.865 18.1645 146.052 18.6445L144.492 20.6045H143.532C143.492 20.2178 143.405 19.9445 143.272 19.7845C143.152 19.6112 142.965 19.5245 142.712 19.5245V19.5045ZM152.993 28.0045H147.113V27.1845L148.893 25.7445V20.3845L147.113 19.1645V18.3445L150.733 16.9445H151.693V26.3445L153.493 27.0045L152.993 28.0045ZM150.233 10.9245C150.699 10.9245 151.086 11.0912 151.393 11.4245C151.699 11.7445 151.853 12.1445 151.853 12.6245C151.853 12.9578 151.739 13.2778 151.513 13.5845C151.299 13.8778 151.026 14.1112 150.693 14.2845C150.373 14.4578 150.059 14.5445 149.753 14.5445C149.286 14.5445 148.899 14.3845 148.593 14.0645C148.286 13.7445 148.133 13.3445 148.133 12.8645C148.133 12.5178 148.239 12.1978 148.453 11.9045C148.679 11.6112 148.953 11.3778 149.273 11.2045C149.606 11.0178 149.926 10.9245 150.233 10.9245ZM165.942 28.0045H161.842V26.2645L159.582 28.0445C159.315 28.1512 158.982 28.2045 158.582 28.2045C157.382 28.2045 156.509 27.9112 155.962 27.3245C155.429 26.7245 155.162 26.0045 155.162 25.1645C155.162 24.6712 155.329 24.1912 155.662 23.7245C156.009 23.2445 156.495 22.7912 157.122 22.3645H161.842V21.4445C161.842 19.9245 161.029 19.1645 159.402 19.1645C158.549 19.1645 157.455 19.6112 156.122 20.5045L155.522 19.6045L158.362 17.3445C158.922 17.1978 159.622 17.1245 160.462 17.1245C161.782 17.1245 162.809 17.4378 163.542 18.0645C164.275 18.6912 164.642 19.6045 164.642 20.8045V26.3045L166.442 27.0045L165.942 28.0045ZM159.362 26.1045C160.109 26.1045 160.935 25.7645 161.842 25.0845V23.3845H158.422C158.155 23.7045 158.022 24.0912 158.022 24.5445C158.022 24.9845 158.142 25.3578 158.382 25.6645C158.635 25.9578 158.962 26.1045 159.362 26.1045Z" fill="#88AB8E"/>
<path d="M22.5 11.5C23.0523 11.5 23.5 11.0523 23.5 10.5C23.5 9.94772 23.0523 9.5 22.5 9.5C21.9477 9.5 21.5 9.94772 21.5 10.5C21.5 11.0523 21.9477 11.5 22.5 11.5Z" fill="#88AB8E"/>
<path d="M25.5 9.5C26.0523 9.5 26.5 9.05228 26.5 8.5C26.5 7.94772 26.0523 7.5 25.5 7.5C24.9477 7.5 24.5 7.94772 24.5 8.5C24.5 9.05228 24.9477 9.5 25.5 9.5Z" fill="#88AB8E"/>
<path d="M25.5 13.5C26.0523 13.5 26.5 13.0523 26.5 12.5C26.5 11.9477 26.0523 11.5 25.5 11.5C24.9477 11.5 24.5 11.9477 24.5 12.5C24.5 13.0523 24.9477 13.5 25.5 13.5Z" fill="#88AB8E"/>
<path d="M28.5 7.5C29.0523 7.5 29.5 7.05228 29.5 6.5C29.5 5.94772 29.0523 5.5 28.5 5.5C27.9477 5.5 27.5 5.94772 27.5 6.5C27.5 7.05228 27.9477 7.5 28.5 7.5Z" fill="#88AB8E"/>
<path d="M28.5 15.5C29.0523 15.5 29.5 15.0523 29.5 14.5C29.5 13.9477 29.0523 13.5 28.5 13.5C27.9477 13.5 27.5 13.9477 27.5 14.5C27.5 15.0523 27.9477 15.5 28.5 15.5Z" fill="#88AB8E"/>
<path d="M28.5 11.5C29.0523 11.5 29.5 11.0523 29.5 10.5C29.5 9.94772 29.0523 9.5 28.5 9.5C27.9477 9.5 27.5 9.94772 27.5 10.5C27.5 11.0523 27.9477 11.5 28.5 11.5Z" fill="#88AB8E"/>
<path d="M13.5 13.7V8.5H18.5V13.7" stroke="#88AB8E" stroke-width="2" stroke-miterlimit="10" stroke-linecap="round" stroke-linejoin="round"/>
<path d="M16 32.5C21.2467 32.5 25.5 28.2467 25.5 23C25.5 17.7533 21.2467 13.5 16 13.5C10.7533 13.5 6.5 17.7533 6.5 23C6.5 28.2467 10.7533 32.5 16 32.5Z" stroke="#88AB8E" stroke-width="2" stroke-miterlimit="10" stroke-linecap="round" stroke-linejoin="round"/>
<path d="M16 27.5C16.274 27.5 20.5 25.25 20.5 21.667C20.5 20.47 19.493 19.5 18.25 19.5C17.143 19.5 16.187 20.303 16 21.178C15.813 20.303 14.857 19.5 13.75 19.5C12.507 19.5 11.5 20.47 11.5 21.667C11.5 25.25 15.726 27.5 16 27.5Z" stroke="#88AB8E" stroke-width="2" stroke-miterlimit="10" stroke-linecap="round" stroke-linejoin="round"/>
</svg>
