<svg width="32" height="32" viewBox="0 0 32 32" fill="none" xmlns="http://www.w3.org/2000/svg">
<path d="M21 8C21.5523 8 22 7.55228 22 7C22 6.44772 21.5523 6 21 6C20.4477 6 20 6.44772 20 7C20 7.55228 20.4477 8 21 8Z" fill="#AFC8AD"/>
<path d="M24 6C24.5523 6 25 5.55228 25 5C25 4.44772 24.5523 4 24 4C23.4477 4 23 4.44772 23 5C23 5.55228 23.4477 6 24 6Z" fill="#AFC8AD"/>
<path d="M24 10C24.5523 10 25 9.55228 25 9C25 8.44772 24.5523 8 24 8C23.4477 8 23 8.44772 23 9C23 9.55228 23.4477 10 24 10Z" fill="#AFC8AD"/>
<path d="M27 4C27.5523 4 28 3.55228 28 3C28 2.44772 27.5523 2 27 2C26.4477 2 26 2.44772 26 3C26 3.55228 26.4477 4 27 4Z" fill="#AFC8AD"/>
<path d="M27 12C27.5523 12 28 11.5523 28 11C28 10.4477 27.5523 10 27 10C26.4477 10 26 10.4477 26 11C26 11.5523 26.4477 12 27 12Z" fill="#AFC8AD"/>
<path d="M27 8C27.5523 8 28 7.55228 28 7C28 6.44772 27.5523 6 27 6C26.4477 6 26 6.44772 26 7C26 7.55228 26.4477 8 27 8Z" fill="#AFC8AD"/>
<path d="M12 10.2V5H17V10.2" stroke="#AFC8AD" stroke-width="2" stroke-miterlimit="10" stroke-linecap="round" stroke-linejoin="round"/>
<path d="M14.5 29C19.7467 29 24 24.7467 24 19.5C24 14.2533 19.7467 10 14.5 10C9.25329 10 5 14.2533 5 19.5C5 24.7467 9.25329 29 14.5 29Z" stroke="#AFC8AD" stroke-width="2" stroke-miterlimit="10" stroke-linecap="round" stroke-linejoin="round"/>
<path d="M14.5 24C14.774 24 19 21.75 19 18.167C19 16.97 17.993 16 16.75 16C15.643 16 14.687 16.803 14.5 17.678C14.313 16.803 13.357 16 12.25 16C11.007 16 10 16.97 10 18.167C10 21.75 14.226 24 14.5 24Z" stroke="#AFC8AD" stroke-width="2" stroke-miterlimit="10" stroke-linecap="round" stroke-linejoin="round"/>
</svg>
